<?xml version="1.0" encoding="iso-8859-1"?>
<!-- Generator: Adobe Illustrator 16.0.0, SVG Export Plug-In . SVG Version: 6.00 Build 0)  -->
<!DOCTYPE svg PUBLIC "-//W3C//DTD SVG 1.1//EN" "http://www.w3.org/Graphics/SVG/1.1/DTD/svg11.dtd">
<svg version="1.1" id="Capa_1" xmlns="http://www.w3.org/2000/svg" xmlns:xlink="http://www.w3.org/1999/xlink" x="0px" y="0px"
	 width="31.024px" height="31.024px" viewBox="0 0 31.024 31.024" style="enable-background:new 0 0 31.024 31.024;"
	 xml:space="preserve">
<g>
	<path d="M20.349,19.541c0.948-1.037,1.659-2.336,2.101-3.562c0.666-0.36,1.191-1.067,1.401-1.899
		c0.188-0.756,0.615-2.453-0.305-3.258V9.906c0.06-2.033-0.161-4.851-2.695-6.082C20.728,3.43,20.708,3.123,20.708,3.1L20.399,0
		l-2.226,2.096c-0.279,0.265-2.117,0.734-3.892,0.912l-0.683,0.107C8.777,3.873,8.849,6.543,8.913,8.9
		c0.01,0.303,0.019,0.623,0.019,0.977l0.024,0.826c-0.496,0.473-0.881,1.424-0.414,3.332c0.203,0.824,0.746,1.529,1.396,1.834
		c0.322,0.844,1.027,2.402,2.181,3.676c-0.781,0.232-1.531,0.523-2.24,0.877c-0.542-1.683-2.104-2.91-3.966-2.91
		c-2.308,0-4.186,1.877-4.186,4.186c0,1.786,1.131,3.305,2.71,3.9c-0.798,1.498-1.258,3.162-1.258,4.927v0.5h26.118v-0.5
		C29.3,25.412,25.54,21.073,20.349,19.541z M22.966,30.024v-2.539c0-0.277-0.226-0.5-0.5-0.5c-0.276,0-0.5,0.223-0.5,0.5v2.539
		H10.515v-2.539c0-0.277-0.225-0.5-0.5-0.5s-0.5,0.223-0.5,0.5v2.539H4.197c0.08-1.503,0.526-2.916,1.25-4.191
		c0.155,0.019,0.309,0.05,0.469,0.05c2.309,0,4.187-1.877,4.187-4.187c0-0.063-0.017-0.125-0.021-0.188l5.791,6.574
		c0.095,0.105,0.23,0.17,0.375,0.17c0,0,0.002,0,0.004,0c0.145-0.002,0.281-0.062,0.375-0.176l5.706-6.666
		c3.41,1.76,5.76,4.938,5.955,8.611h-5.32L22.966,30.024L22.966,30.024z M5.915,18.512c1.48,0,2.718,1.021,3.072,2.393
		c0.045,0.172,0.07,0.35,0.086,0.529c0.008,0.088,0.026,0.172,0.026,0.264c0,0.117-0.022,0.229-0.035,0.344
		c-0.168,1.541-1.427,2.748-2.993,2.826c-0.054,0.002-0.104,0.016-0.156,0.016c-0.149,0-0.293-0.023-0.438-0.045
		c-0.178-0.023-0.351-0.062-0.519-0.115c-1.287-0.41-2.229-1.604-2.229-3.023C2.73,19.939,4.159,18.512,5.915,18.512z M10.717,15.08
		l-0.24-0.072c-0.414-0.125-0.817-0.635-0.96-1.211c-0.307-1.256-0.225-2.146,0.229-2.445l0.23-0.151l-0.04-1.336
		c0-0.351-0.009-0.681-0.019-0.992c-0.063-2.315-0.114-4.146,3.84-4.769L14.411,4c0.929-0.092,3.74-0.506,4.449-1.174l0.744-0.703
		l0.105,1.056c0.003,0.059,0.037,0.579,0.271,1.188l0.075,0.196l0.193,0.084c2.144,0.927,2.354,3.281,2.295,5.242v1.48l0.257,0.143
		c0.581,0.326,0.203,1.83,0.078,2.324c-0.151,0.607-0.556,1.125-1.025,1.318l-0.211,0.086l-0.071,0.217
		c-0.449,1.334-1.246,2.793-2.338,3.807c-0.156,0.146-0.32,0.279-0.488,0.404c-0.207,0.154-0.422,0.297-0.647,0.416
		c-0.437,0.229-0.905,0.383-1.405,0.443c-0.146,0.018-0.298,0.029-0.451,0.029c-0.195,0-0.384-0.02-0.566-0.043
		c-0.467-0.068-0.895-0.225-1.291-0.432c-0.23-0.121-0.451-0.26-0.658-0.414c-0.168-0.127-0.33-0.26-0.482-0.4
		c-1.373-1.285-2.156-3.176-2.438-3.951L10.717,15.08z M17.53,25.485l-0.789-3.103l1.059-0.908l-0.157-0.135
		c0.679-0.205,1.296-0.552,1.854-0.994c0.656,0.162,1.289,0.373,1.896,0.627L17.53,25.485z M14.738,21.314l-0.188,0.16l1.058,0.908
		l-0.768,3.017l-3.857-4.382c0.636-0.271,1.3-0.498,1.99-0.67C13.492,20.764,14.077,21.104,14.738,21.314z M3.425,22.196v-0.5v-0.5
		h1.99v-1.99h0.5h0.5v1.99h1.99v0.088v0.412v0.178v0.322H7.976H7.189H6.415v0.726v0.715v0.551H5.948H5.915h-0.5v-0.133v-1.856
		L3.425,22.196L3.425,22.196z"/>
</g>
<g>
</g>
<g>
</g>
<g>
</g>
<g>
</g>
<g>
</g>
<g>
</g>
<g>
</g>
<g>
</g>
<g>
</g>
<g>
</g>
<g>
</g>
<g>
</g>
<g>
</g>
<g>
</g>
<g>
</g>
</svg>
