<?xml version="1.0" encoding="iso-8859-1"?>
<!-- Generator: Adobe Illustrator 16.0.0, SVG Export Plug-In . SVG Version: 6.00 Build 0)  -->
<!DOCTYPE svg PUBLIC "-//W3C//DTD SVG 1.1//EN" "http://www.w3.org/Graphics/SVG/1.1/DTD/svg11.dtd">
<svg version="1.1" id="Capa_1" xmlns="http://www.w3.org/2000/svg" xmlns:xlink="http://www.w3.org/1999/xlink" x="0px" y="0px"
	 width="506.697px" height="506.697px" viewBox="0 0 506.697 506.697" style="enable-background:new 0 0 506.697 506.697;"
	 xml:space="preserve">
<g>
	<g>
		<path d="M34.779,248.223c4.514,0,9.075-1.157,13.263-3.576l106.67-61.688l25.006,56.104l-46.292,26.898
			c-9.591,5.586-15.463,15.865-15.396,26.947l0.507,88.416c-27.033,7.516-54.133,18.828-53.292,33.984
			c1.434,25.561,33.708,45.996,93.569,27.168c3.586-1.119,6.407-2.047,6.369-1.914c-0.038,0.115-0.287,3.242-0.555,7l-0.344,4.734
			c-0.258,3.738-2.869,8.73-5.02,11.799c-5.173,7.373-6.598,17.117-2.802,26.049c5.842,13.799,21.792,20.244,35.601,14.393
			c13.798-5.854,20.253-21.793,14.401-35.602c-0.727-1.74-1.645-3.367-2.677-4.84c-1.741-2.523-2.964-7.18-2.19-10.852
			c1.425-6.818,3.653-17.357,5.078-24.176c0.774-3.672,4.188-7.83,7.65-9.285c21.028-8.863,87.879-36.959,87.879-36.959
			l69.099-29.566c3.433-1.473,8.816-1.043,11.991,0.965l20.865,13.121c3.165,2.008,5.671,6.129,6.264,9.123
			c0.354,1.768,0.898,3.547,1.625,5.277c5.853,13.809,21.803,20.254,35.602,14.4c13.809-5.852,20.263-21.801,14.401-35.6
			c-3.777-8.932-11.771-14.67-20.665-16.094c-3.71-0.574-9.104-2.172-11.972-4.58l-2.917-2.439
			c3.653-1.053,7.182-2.744,10.375-5.211c4.208-3.242,7.201-7.402,9.209-11.934c53.751-29.797,61.41-66.623,44.188-85.222
			c-11.953-12.909-46.282,4.714-72.714,21.564l-43.299-56.008c-7.248-9.381-19.201-13.789-30.829-11.379l-65.646,13.712
			l-19.861-60.559c7.469-1.76,15.051-3.204,20.626-3.825l135.233-15.166c14.563-1.625,25.054-14.755,23.418-29.318
			c-1.635-14.564-14.765-25.083-29.318-23.419L272.655,85.823c-15.223,1.702-37.599,6.923-52.038,12.154l-38.011,13.761
			c-13.521,4.896-34.071,14.076-47.525,21.305L21.468,198.708c-12.68,7.334-17.021,23.562-9.687,36.261
			C16.697,243.47,25.609,248.223,34.779,248.223z M432.053,358.68c6.617-2.803,14.268,0.287,17.069,6.904
			c2.812,6.617-0.277,14.268-6.914,17.068c-6.607,2.803-14.248-0.277-17.06-6.914C422.347,369.141,425.445,361.49,432.053,358.68z
			 M187.014,490.891c-6.617,2.803-14.257-0.287-17.069-6.914c-2.802-6.607,0.296-14.258,6.914-17.059
			c6.617-2.812,14.248,0.287,17.05,6.904C196.73,480.439,193.632,488.08,187.014,490.891z M244.169,273.219l92.928-19.402
			l26.899,34.789l-86.264,36.586l-97.355,41.301l-0.325-55.998L244.169,273.219z"/>
		<circle cx="161.244" cy="49.218" r="49.218"/>
	</g>
</g>
<g>
</g>
<g>
</g>
<g>
</g>
<g>
</g>
<g>
</g>
<g>
</g>
<g>
</g>
<g>
</g>
<g>
</g>
<g>
</g>
<g>
</g>
<g>
</g>
<g>
</g>
<g>
</g>
<g>
</g>
</svg>
